<svg width="51" height="51" viewBox="0 0 51 51" fill="none" xmlns="http://www.w3.org/2000/svg">
<circle cx="25.5" cy="25.5" r="25.5" fill="white"/>
<path d="M37.7444 40L27.5944 29.85C26.7889 30.4944 25.8625 31.0046 24.8153 31.3806C23.7681 31.7565 22.6537 31.9444 21.4722 31.9444C18.5454 31.9444 16.0686 30.9305 14.0418 28.9027C12.015 26.8748 11.0011 24.398 11 21.4722C10.9989 18.5464 12.0129 16.0696 14.0418 14.0418C16.0707 12.0139 18.5475 11 21.4722 11C24.3969 11 26.8743 12.0139 28.9043 14.0418C30.9343 16.0696 31.9477 18.5464 31.9444 21.4722C31.9444 22.6537 31.7565 23.7681 31.3806 24.8153C31.0046 25.8625 30.4944 26.7889 29.85 27.5944L40 37.7444L37.7444 40ZM21.4722 28.7222C23.4861 28.7222 25.1982 28.0176 26.6084 26.6084C28.0187 25.1993 28.7233 23.4872 28.7222 21.4722C28.7211 19.4573 28.0166 17.7457 26.6084 16.3376C25.2003 14.9295 23.4883 14.2244 21.4722 14.2222C19.4562 14.2201 17.7446 14.9252 16.3376 16.3376C14.9306 17.75 14.2254 19.4616 14.2222 21.4722C14.219 23.4829 14.9241 25.195 16.3376 26.6084C17.7511 28.0219 19.4626 28.7265 21.4722 28.7222Z" fill="#100118"/>
</svg>
