<svg width="28" height="25" viewBox="0 0 28 25" fill="none" xmlns="http://www.w3.org/2000/svg">
<path fill-rule="evenodd" clip-rule="evenodd" d="M22.8098 18.8684L26.8444 23.0878L25.4953 24.5L3.89455 1.91223L5.24364 0.5L8.73091 4.14439C10.4176 3.49242 12.2018 3.15979 14 3.16208C20.1193 3.16208 25.4189 6.95289 28 12.4794C26.8122 15.0323 25.0269 17.23 22.8098 18.8684ZM12.5033 8.09093L18.1962 14.0447C18.4802 13.2139 18.5328 12.3158 18.3479 11.455C18.1629 10.5942 17.748 9.80601 17.1515 9.18214C16.555 8.55827 15.8013 8.12439 14.9782 7.93097C14.1551 7.73756 13.2964 7.79257 12.502 8.0896L12.5033 8.09093ZM19.2704 20.8157C17.5832 21.4673 15.7985 21.7995 14 21.7967C7.88073 21.7967 2.58109 18.0059 0 12.4794C1.1878 9.92645 2.97311 7.72877 5.19018 6.09037L9.80382 10.9141C9.5198 11.7448 9.46721 12.6429 9.65215 13.5037C9.83709 14.3645 10.252 15.1527 10.8485 15.7766C11.445 16.4005 12.1987 16.8343 13.0218 17.0278C13.8449 17.2212 14.7036 17.1662 15.498 16.8691L19.2704 20.8143V20.8157Z" fill="#100118"/>
</svg>
