<svg width="24" height="24" viewBox="0 0 24 24" fill="none" xmlns="http://www.w3.org/2000/svg">
<path d="M7.10004 0.333252H16.9C20.6334 0.333252 23.6667 3.36659 23.6667 7.09992V16.8999C23.6667 18.6946 22.9538 20.4157 21.6848 21.6847C20.4158 22.9537 18.6947 23.6666 16.9 23.6666H7.10004C3.36671 23.6666 0.333374 20.6333 0.333374 16.8999V7.09992C0.333374 5.30529 1.04629 3.58416 2.31529 2.31516C3.58428 1.04617 5.30541 0.333252 7.10004 0.333252ZM6.86671 2.66659C5.7528 2.66659 4.68451 3.10908 3.89686 3.89674C3.10921 4.68439 2.66671 5.75268 2.66671 6.86659V17.1333C2.66671 19.4549 4.54504 21.3333 6.86671 21.3333H17.1334C18.2473 21.3333 19.3156 20.8908 20.1032 20.1031C20.8909 19.3155 21.3334 18.2472 21.3334 17.1333V6.86659C21.3334 4.54492 19.455 2.66659 17.1334 2.66659H6.86671ZM18.125 4.41659C18.5118 4.41659 18.8827 4.57023 19.1562 4.84372C19.4297 5.11721 19.5834 5.48814 19.5834 5.87492C19.5834 6.26169 19.4297 6.63263 19.1562 6.90612C18.8827 7.17961 18.5118 7.33325 18.125 7.33325C17.7383 7.33325 17.3673 7.17961 17.0938 6.90612C16.8204 6.63263 16.6667 6.26169 16.6667 5.87492C16.6667 5.48814 16.8204 5.11721 17.0938 4.84372C17.3673 4.57023 17.7383 4.41659 18.125 4.41659ZM12 6.16659C13.5471 6.16659 15.0309 6.78117 16.1248 7.87513C17.2188 8.96909 17.8334 10.4528 17.8334 11.9999C17.8334 13.547 17.2188 15.0307 16.1248 16.1247C15.0309 17.2187 13.5471 17.8333 12 17.8333C10.4529 17.8333 8.96921 17.2187 7.87525 16.1247C6.78129 15.0307 6.16671 13.547 6.16671 11.9999C6.16671 10.4528 6.78129 8.96909 7.87525 7.87513C8.96921 6.78117 10.4529 6.16659 12 6.16659ZM12 8.49992C11.0718 8.49992 10.1815 8.86867 9.52517 9.52505C8.86879 10.1814 8.50004 11.0717 8.50004 11.9999C8.50004 12.9282 8.86879 13.8184 9.52517 14.4748C10.1815 15.1312 11.0718 15.4999 12 15.4999C12.9283 15.4999 13.8185 15.1312 14.4749 14.4748C15.1313 13.8184 15.5 12.9282 15.5 11.9999C15.5 11.0717 15.1313 10.1814 14.4749 9.52505C13.8185 8.86867 12.9283 8.49992 12 8.49992Z" fill="#D2D2E6"/>
</svg>
