<svg width="22" height="32" viewBox="0 0 22 32" fill="none" xmlns="http://www.w3.org/2000/svg">
<path d="M2.75 31.799C1.99375 31.799 1.34658 31.5102 0.8085 30.9325C0.270416 30.3548 0.000916667 29.6595 0 28.8467V14.0848C0 13.2729 0.2695 12.5781 0.8085 12.0004C1.3475 11.4227 1.99467 11.1334 2.75 11.1324H4.125V8.17999C4.125 6.13793 4.79554 4.3975 6.13662 2.95871C7.47771 1.51992 9.09883 0.800027 11 0.799043C12.9012 0.798059 14.5227 1.51795 15.8647 2.95871C17.2067 4.39947 17.8768 6.1399 17.875 8.17999V11.1324H19.25C20.0062 11.1324 20.6539 11.4217 21.1929 12.0004C21.7319 12.579 22.0009 13.2738 22 14.0848V28.8467C22 29.6586 21.731 30.3538 21.1929 30.9325C20.6548 31.5112 20.0072 31.8 19.25 31.799H2.75ZM11 24.4181C11.7562 24.4181 12.4039 24.1292 12.9429 23.5516C13.4819 22.9739 13.7509 22.2786 13.75 21.4657C13.7491 20.6528 13.48 19.958 12.9429 19.3813C12.4057 18.8046 11.7581 18.5153 11 18.5133C10.2419 18.5114 9.59475 18.8007 9.0585 19.3813C8.52225 19.962 8.25275 20.6568 8.25 21.4657C8.24725 22.2747 8.51675 22.9699 9.0585 23.5516C9.60025 24.1332 10.2474 24.422 11 24.4181ZM6.875 11.1324H15.125V8.17999C15.125 6.94984 14.724 5.9042 13.9219 5.04309C13.1198 4.18198 12.1458 3.75142 11 3.75142C9.85417 3.75142 8.88021 4.18198 8.07812 5.04309C7.27604 5.9042 6.875 6.94984 6.875 8.17999V11.1324Z" fill="#100118"/>
</svg>
