<svg width="16" height="12" viewBox="0 0 16 12" fill="none" xmlns="http://www.w3.org/2000/svg">
<path d="M10.3724 6C9.75511 6 9.15822 5.69956 8.69104 5.15433C8.23677 4.62251 7.95935 3.91331 7.91041 3.15797C7.85817 2.35222 8.08365 1.61128 8.54513 1.07128C9.0066 0.531278 9.65182 0.240005 10.3724 0.240005C11.0879 0.240005 11.7349 0.536514 12.1949 1.0752C12.6594 1.61913 12.8854 2.35877 12.8332 3.15764C12.7831 3.91397 12.5059 4.62284 12.0526 5.154C11.5866 5.69956 10.99 6 10.3724 6ZM14.3305 11.76H6.4146C6.28733 11.7607 6.1616 11.7296 6.04708 11.6691C5.93257 11.6086 5.83232 11.5202 5.75406 11.4108C5.67104 11.2922 5.61372 11.1547 5.58637 11.0085C5.55902 10.8623 5.56236 10.7113 5.59613 10.5668C5.84894 9.46025 6.47525 8.54258 7.4072 7.91323C8.23437 7.35491 9.28733 7.04727 10.3724 7.04727C11.4788 7.04727 12.5041 7.34182 13.3361 7.89982C14.2702 8.52589 14.8974 9.4488 15.149 10.5687C15.1823 10.7134 15.1853 10.8644 15.1577 11.0105C15.13 11.1566 15.0724 11.294 14.9893 11.4124C14.9111 11.5213 14.8111 11.6093 14.6969 11.6695C14.5827 11.7297 14.4574 11.7607 14.3305 11.76ZM4.6978 6.13091C3.64125 6.13091 2.71229 5.06007 2.62612 3.74411C2.58349 3.06993 2.77625 2.44648 3.16656 1.98928C3.55268 1.53666 4.09732 1.28728 4.6978 1.28728C5.29829 1.28728 5.83873 1.53797 6.22694 1.9932C6.62026 2.454 6.81242 3.07615 6.76738 3.74477C6.68121 5.0604 5.75256 6.13091 4.6978 6.13091ZM6.6692 7.16018C6.14107 6.87873 5.45562 6.738 4.6981 6.738C3.81359 6.738 2.95459 6.98934 2.27904 7.44556C1.51312 7.96363 0.997903 8.718 0.789835 9.6288C0.759386 9.7598 0.756506 9.89662 0.78141 10.029C0.806315 10.1614 0.85836 10.2859 0.933651 10.3933C1.00509 10.4933 1.09662 10.5741 1.20119 10.6294C1.30576 10.6848 1.42059 10.7133 1.53684 10.7127H4.86954C4.92579 10.7127 4.98026 10.6912 5.02344 10.6519C5.06662 10.6126 5.09578 10.558 5.10583 10.4977C5.10914 10.4771 5.11334 10.4565 5.11815 10.4362C5.37275 9.32149 5.96934 8.3796 6.85085 7.69298C6.88327 7.6675 6.90935 7.63361 6.92672 7.59438C6.94409 7.55514 6.9522 7.5118 6.95033 7.46828C6.94845 7.42477 6.93664 7.38245 6.91596 7.34516C6.89529 7.30788 6.86641 7.27681 6.83194 7.25476C6.7848 7.22465 6.73075 7.19291 6.6692 7.16018Z" fill="#F9F0FF"/>
</svg>
