<svg width="506" height="250" viewBox="0 0 506 250" fill="none" xmlns="http://www.w3.org/2000/svg">
<g filter="url(#filter0_d_304_2822)">
<path d="M6 26C6 14.9543 14.9543 6 26 6H472C483.046 6 492 14.9543 492 26V216C492 227.046 483.046 236 472 236H26C14.9543 236 6 227.046 6 216V26Z" fill="url(#paint0_linear_304_2822)"/>
</g>
<path d="M39.04 98V48.79H48.56V98H39.04ZM46.04 77.84V69.37H70.82V77.84H46.04ZM46.04 57.19V48.79H72.01V57.19H46.04ZM86.5088 77.42V70H97.9188C100.252 70 102.049 69.4167 103.309 68.25C104.615 67.0367 105.269 65.38 105.269 63.28C105.269 61.3667 104.615 59.78 103.309 58.52C102.049 57.2133 100.252 56.56 97.9188 56.56H86.5088V48.79H98.7588C101.932 48.79 104.709 49.42 107.089 50.68C109.515 51.8933 111.382 53.5733 112.689 55.72C114.042 57.8667 114.719 60.34 114.719 63.14C114.719 66.0333 114.042 68.5533 112.689 70.7C111.382 72.8 109.515 74.4567 107.089 75.67C104.662 76.8367 101.839 77.42 98.6188 77.42H86.5088ZM79.5088 98V48.79H89.0288V98H79.5088ZM106.389 98L90.1488 76.72L98.8988 73.99L117.939 98H106.389ZM123.327 98V48.79H132.847V98H123.327ZM130.327 98V89.6H157.557V98H130.327ZM130.327 76.93V68.81H155.107V76.93H130.327ZM130.327 57.19V48.79H157.207V57.19H130.327ZM176.044 98V49.84H185.634V98H176.044ZM160.364 57.26V48.79H201.314V57.26H160.364ZM207.888 98V48.79H217.408V98H207.888ZM214.888 98V89.6H242.118V98H214.888ZM214.888 76.93V68.81H239.668V76.93H214.888ZM214.888 57.19V48.79H241.768V57.19H214.888Z" fill="white"/>
<path d="M248.79 181.7C245.29 181.7 242 181.07 238.92 179.81C235.887 178.503 233.203 176.683 230.87 174.35C228.583 172.017 226.787 169.333 225.48 166.3C224.22 163.22 223.59 159.907 223.59 156.36C223.59 152.767 224.243 149.453 225.55 146.42C226.857 143.34 228.677 140.657 231.01 138.37C233.343 136.037 236.073 134.24 239.2 132.98C242.327 131.673 245.71 131.02 249.35 131.02C253.41 131.02 257.143 131.79 260.55 133.33C263.957 134.823 266.78 136.947 269.02 139.7L262.58 146.14C261.04 144.133 259.127 142.593 256.84 141.52C254.553 140.447 252.033 139.91 249.28 139.91C246.153 139.91 243.377 140.61 240.95 142.01C238.57 143.363 236.703 145.277 235.35 147.75C233.997 150.177 233.32 153.023 233.32 156.29C233.32 159.557 233.973 162.45 235.28 164.97C236.633 167.443 238.453 169.38 240.74 170.78C243.073 172.18 245.733 172.88 248.72 172.88C251.8 172.88 254.437 172.32 256.63 171.2C258.823 170.033 260.503 168.353 261.67 166.16C262.837 163.92 263.42 161.19 263.42 157.97L269.65 162.24L248.16 162.03V153.77H273.22V155.1C273.22 160.98 272.17 165.903 270.07 169.87C267.97 173.79 265.077 176.753 261.39 178.76C257.75 180.72 253.55 181.7 248.79 181.7ZM287.522 160.42V153H298.932C301.266 153 303.062 152.417 304.322 151.25C305.629 150.037 306.282 148.38 306.282 146.28C306.282 144.367 305.629 142.78 304.322 141.52C303.062 140.213 301.266 139.56 298.932 139.56H287.522V131.79H299.772C302.946 131.79 305.722 132.42 308.102 133.68C310.529 134.893 312.396 136.573 313.702 138.72C315.056 140.867 315.732 143.34 315.732 146.14C315.732 149.033 315.056 151.553 313.702 153.7C312.396 155.8 310.529 157.457 308.102 158.67C305.676 159.837 302.852 160.42 299.632 160.42H287.522ZM280.522 181V131.79H290.042V181H280.522ZM307.402 181L291.162 159.72L299.912 156.99L318.952 181H307.402ZM319.129 181L338.939 131.79H346.709L366.449 181H356.299L341.039 140.61H344.539L329.069 181H319.129ZM329.629 171.83V163.85H356.089V171.83H329.629ZM338.239 127.45L334.739 123.11L344.819 112.19L350.699 119.33L338.239 127.45ZM378.562 181V132.84H388.152V181H378.562ZM362.882 140.26V131.79H403.832V140.26H362.882ZM410.405 181V131.79H419.925V181H410.405ZM443.347 181.7C439.381 181.7 435.974 181.023 433.127 179.67C430.327 178.317 427.784 176.287 425.497 173.58L431.797 167.28C433.244 169.193 434.924 170.687 436.837 171.76C438.751 172.787 441.084 173.3 443.837 173.3C446.311 173.3 448.271 172.81 449.717 171.83C451.211 170.85 451.957 169.497 451.957 167.77C451.957 166.277 451.537 165.063 450.697 164.13C449.857 163.197 448.737 162.403 447.337 161.75C445.984 161.097 444.467 160.513 442.787 160C441.154 159.44 439.497 158.81 437.817 158.11C436.184 157.41 434.667 156.547 433.267 155.52C431.914 154.447 430.817 153.093 429.977 151.46C429.137 149.78 428.717 147.68 428.717 145.16C428.717 142.173 429.441 139.63 430.887 137.53C432.334 135.43 434.317 133.82 436.837 132.7C439.357 131.58 442.204 131.02 445.377 131.02C448.737 131.02 451.771 131.65 454.477 132.91C457.184 134.17 459.401 135.803 461.127 137.81L454.827 144.11C453.381 142.523 451.887 141.357 450.347 140.61C448.854 139.863 447.151 139.49 445.237 139.49C443.044 139.49 441.317 139.91 440.057 140.75C438.797 141.59 438.167 142.803 438.167 144.39C438.167 145.743 438.587 146.84 439.427 147.68C440.267 148.52 441.364 149.243 442.717 149.85C444.117 150.457 445.634 151.04 447.267 151.6C448.947 152.16 450.604 152.79 452.237 153.49C453.917 154.19 455.434 155.1 456.787 156.22C458.187 157.34 459.307 158.787 460.147 160.56C460.987 162.287 461.407 164.433 461.407 167C461.407 171.573 459.797 175.167 456.577 177.78C453.357 180.393 448.947 181.7 443.347 181.7Z" fill="white"/>
<line x1="6" y1="109.5" x2="492" y2="109.5" stroke="white" stroke-width="3"/>
<path d="M276.116 211L278.636 198.4H279.716L286.07 209.398L285.656 209.326L287.834 198.4H289.148L286.628 211H285.548L279.194 200.002L279.608 200.074L277.43 211H276.116ZM294.521 211.09C293.717 211.09 293.003 210.928 292.379 210.604C291.755 210.28 291.269 209.818 290.921 209.218C290.573 208.618 290.399 207.904 290.399 207.076C290.399 206.272 290.531 205.528 290.795 204.844C291.059 204.16 291.431 203.566 291.911 203.062C292.391 202.546 292.955 202.15 293.603 201.874C294.263 201.598 294.977 201.46 295.745 201.46C296.573 201.46 297.275 201.61 297.851 201.91C298.427 202.198 298.871 202.624 299.183 203.188C299.495 203.74 299.651 204.412 299.651 205.204C299.651 206.344 299.441 207.358 299.021 208.246C298.601 209.134 298.007 209.83 297.239 210.334C296.471 210.838 295.565 211.09 294.521 211.09ZM294.791 209.956C295.583 209.956 296.285 209.77 296.897 209.398C297.521 209.014 298.007 208.486 298.355 207.814C298.715 207.142 298.895 206.38 298.895 205.528C298.895 204.592 298.619 203.866 298.067 203.35C297.527 202.834 296.765 202.576 295.781 202.576C295.001 202.576 294.299 202.768 293.675 203.152C293.051 203.536 292.559 204.064 292.199 204.736C291.851 205.396 291.677 206.158 291.677 207.022C291.677 207.946 291.947 208.666 292.487 209.182C293.039 209.698 293.807 209.956 294.791 209.956ZM297.905 211L298.445 208.282L298.985 206.374L299.165 204.394L299.741 201.55H301.019L299.129 211H297.905ZM307.669 211L310.189 198.4H314.707C316.135 198.4 317.239 198.712 318.019 199.336C318.811 199.96 319.207 200.836 319.207 201.964C319.207 203.044 318.967 203.962 318.487 204.718C318.019 205.462 317.347 206.032 316.471 206.428C315.595 206.824 314.557 207.022 313.357 207.022H309.199L309.919 206.392L308.983 211H307.669ZM309.883 206.5L309.415 205.852H313.375C314.803 205.852 315.907 205.534 316.687 204.898C317.479 204.262 317.875 203.326 317.875 202.09C317.875 201.262 317.593 200.632 317.029 200.2C316.465 199.768 315.655 199.552 314.599 199.552H310.711L311.413 198.886L309.883 206.5ZM319.914 211L321.786 201.55H323.01L322.47 204.34L322.326 203.854C322.746 203.026 323.298 202.42 323.982 202.036C324.678 201.652 325.542 201.46 326.574 201.46L326.34 202.702C326.28 202.702 326.22 202.702 326.16 202.702C326.112 202.69 326.052 202.684 325.98 202.684C324.972 202.684 324.138 202.978 323.478 203.566C322.83 204.142 322.386 205.018 322.146 206.194L321.192 211H319.914ZM326.998 211L328.87 201.55H330.148L328.276 211H326.998ZM330.058 199.462C329.806 199.462 329.596 199.378 329.428 199.21C329.272 199.042 329.194 198.844 329.194 198.616C329.194 198.352 329.284 198.124 329.464 197.932C329.656 197.74 329.896 197.644 330.184 197.644C330.436 197.644 330.646 197.722 330.814 197.878C330.982 198.034 331.066 198.232 331.066 198.472C331.066 198.76 330.97 199 330.778 199.192C330.586 199.372 330.346 199.462 330.058 199.462ZM345.296 201.46C346.148 201.46 346.838 201.628 347.366 201.964C347.906 202.288 348.278 202.762 348.482 203.386C348.686 204.01 348.698 204.754 348.518 205.618L347.438 211H346.16L347.24 205.6C347.432 204.664 347.342 203.932 346.97 203.404C346.61 202.876 345.95 202.612 344.99 202.612C344.042 202.612 343.244 202.876 342.596 203.404C341.96 203.932 341.534 204.724 341.318 205.78L340.274 211H338.996L340.076 205.6C340.268 204.664 340.178 203.932 339.806 203.404C339.434 202.876 338.774 202.612 337.826 202.612C336.854 202.612 336.05 202.888 335.414 203.44C334.778 203.992 334.346 204.82 334.118 205.924L333.11 211H331.832L333.704 201.55H334.928L334.388 204.268L334.118 203.8C334.574 202.984 335.15 202.39 335.846 202.018C336.542 201.646 337.328 201.46 338.204 201.46C338.864 201.46 339.428 201.574 339.896 201.802C340.376 202.018 340.748 202.342 341.012 202.774C341.288 203.194 341.438 203.698 341.462 204.286L340.796 204.142C341.264 203.242 341.882 202.57 342.65 202.126C343.43 201.682 344.312 201.46 345.296 201.46ZM355.242 211.09C354.342 211.09 353.556 210.928 352.884 210.604C352.224 210.268 351.714 209.8 351.354 209.2C351.006 208.6 350.832 207.886 350.832 207.058C350.832 205.978 351.06 205.018 351.516 204.178C351.972 203.338 352.596 202.678 353.388 202.198C354.18 201.706 355.074 201.46 356.07 201.46C356.91 201.46 357.636 201.622 358.248 201.946C358.86 202.258 359.334 202.714 359.67 203.314C360.018 203.914 360.192 204.634 360.192 205.474C360.192 205.666 360.18 205.864 360.156 206.068C360.132 206.26 360.102 206.446 360.066 206.626H351.768L351.93 205.672H359.472L358.95 206.032C359.07 205.276 359.016 204.64 358.788 204.124C358.56 203.608 358.206 203.218 357.726 202.954C357.258 202.678 356.694 202.54 356.034 202.54C355.266 202.54 354.582 202.732 353.982 203.116C353.382 203.488 352.914 204.01 352.578 204.682C352.242 205.342 352.074 206.116 352.074 207.004C352.074 207.952 352.344 208.684 352.884 209.2C353.436 209.704 354.258 209.956 355.35 209.956C355.986 209.956 356.574 209.854 357.114 209.65C357.654 209.434 358.098 209.14 358.446 208.768L359.022 209.686C358.578 210.13 358.02 210.478 357.348 210.73C356.688 210.97 355.986 211.09 355.242 211.09ZM361.785 211L363.657 201.55H364.935L363.063 211H361.785ZM364.845 199.462C364.593 199.462 364.383 199.378 364.215 199.21C364.059 199.042 363.981 198.844 363.981 198.616C363.981 198.352 364.071 198.124 364.251 197.932C364.443 197.74 364.683 197.644 364.971 197.644C365.223 197.644 365.433 197.722 365.601 197.878C365.769 198.034 365.853 198.232 365.853 198.472C365.853 198.76 365.757 199 365.565 199.192C365.373 199.372 365.133 199.462 364.845 199.462ZM366.619 211L368.491 201.55H369.715L369.175 204.34L369.031 203.854C369.451 203.026 370.003 202.42 370.687 202.036C371.383 201.652 372.247 201.46 373.279 201.46L373.045 202.702C372.985 202.702 372.925 202.702 372.865 202.702C372.817 202.69 372.757 202.684 372.685 202.684C371.677 202.684 370.843 202.978 370.183 203.566C369.535 204.142 369.091 205.018 368.851 206.194L367.897 211H366.619ZM377.648 211.09C376.844 211.09 376.13 210.928 375.506 210.604C374.882 210.28 374.396 209.818 374.048 209.218C373.7 208.618 373.526 207.904 373.526 207.076C373.526 206.272 373.658 205.528 373.922 204.844C374.186 204.16 374.558 203.566 375.038 203.062C375.518 202.546 376.082 202.15 376.73 201.874C377.39 201.598 378.104 201.46 378.872 201.46C379.7 201.46 380.402 201.61 380.978 201.91C381.554 202.198 381.998 202.624 382.31 203.188C382.622 203.74 382.778 204.412 382.778 205.204C382.778 206.344 382.568 207.358 382.148 208.246C381.728 209.134 381.134 209.83 380.366 210.334C379.598 210.838 378.692 211.09 377.648 211.09ZM377.918 209.956C378.71 209.956 379.412 209.77 380.024 209.398C380.648 209.014 381.134 208.486 381.482 207.814C381.842 207.142 382.022 206.38 382.022 205.528C382.022 204.592 381.746 203.866 381.194 203.35C380.654 202.834 379.892 202.576 378.908 202.576C378.128 202.576 377.426 202.768 376.802 203.152C376.178 203.536 375.686 204.064 375.326 204.736C374.978 205.396 374.804 206.158 374.804 207.022C374.804 207.946 375.074 208.666 375.614 209.182C376.166 209.698 376.934 209.956 377.918 209.956ZM381.032 211L381.572 208.282L382.112 206.374L382.292 204.394L382.868 201.55H384.146L382.256 211H381.032ZM396.718 211.108C395.47 211.108 394.408 210.892 393.532 210.46C392.656 210.016 391.984 209.404 391.516 208.624C391.06 207.832 390.832 206.914 390.832 205.87C390.832 204.838 391.006 203.866 391.354 202.954C391.714 202.042 392.224 201.238 392.884 200.542C393.556 199.834 394.36 199.282 395.296 198.886C396.244 198.49 397.312 198.292 398.5 198.292C399.508 198.292 400.402 198.448 401.182 198.76C401.962 199.072 402.562 199.528 402.982 200.128L402.046 200.956C401.65 200.464 401.152 200.098 400.552 199.858C399.952 199.606 399.232 199.48 398.392 199.48C397.444 199.48 396.58 199.648 395.8 199.984C395.032 200.308 394.378 200.764 393.838 201.352C393.298 201.94 392.878 202.618 392.578 203.386C392.29 204.142 392.146 204.952 392.146 205.816C392.146 206.62 392.32 207.334 392.668 207.958C393.028 208.57 393.556 209.05 394.252 209.398C394.948 209.746 395.8 209.92 396.808 209.92C397.636 209.92 398.386 209.794 399.058 209.542C399.73 209.29 400.318 208.918 400.822 208.426L401.596 209.308C401.044 209.896 400.342 210.346 399.49 210.658C398.638 210.958 397.714 211.108 396.718 211.108ZM407.253 211.09C406.377 211.09 405.615 210.928 404.967 210.604C404.331 210.268 403.833 209.8 403.473 209.2C403.125 208.6 402.951 207.892 402.951 207.076C402.951 205.996 403.185 205.036 403.653 204.196C404.121 203.344 404.769 202.678 405.597 202.198C406.425 201.706 407.367 201.46 408.423 201.46C409.299 201.46 410.055 201.622 410.691 201.946C411.339 202.27 411.837 202.732 412.185 203.332C412.545 203.932 412.725 204.64 412.725 205.456C412.725 206.536 412.491 207.502 412.023 208.354C411.555 209.194 410.907 209.86 410.079 210.352C409.263 210.844 408.321 211.09 407.253 211.09ZM407.343 209.956C408.135 209.956 408.837 209.77 409.449 209.398C410.073 209.014 410.559 208.486 410.907 207.814C411.267 207.142 411.447 206.38 411.447 205.528C411.447 204.592 411.171 203.866 410.619 203.35C410.079 202.834 409.317 202.576 408.333 202.576C407.553 202.576 406.851 202.768 406.227 203.152C405.603 203.536 405.111 204.064 404.751 204.736C404.403 205.396 404.229 206.158 404.229 207.022C404.229 207.946 404.499 208.666 405.039 209.182C405.591 209.698 406.359 209.956 407.343 209.956ZM427.79 201.46C428.642 201.46 429.332 201.628 429.86 201.964C430.4 202.288 430.772 202.762 430.976 203.386C431.18 204.01 431.192 204.754 431.012 205.618L429.932 211H428.654L429.734 205.6C429.926 204.664 429.836 203.932 429.464 203.404C429.104 202.876 428.444 202.612 427.484 202.612C426.536 202.612 425.738 202.876 425.09 203.404C424.454 203.932 424.028 204.724 423.812 205.78L422.768 211H421.49L422.57 205.6C422.762 204.664 422.672 203.932 422.3 203.404C421.928 202.876 421.268 202.612 420.32 202.612C419.348 202.612 418.544 202.888 417.908 203.44C417.272 203.992 416.84 204.82 416.612 205.924L415.604 211H414.326L416.198 201.55H417.422L416.882 204.268L416.612 203.8C417.068 202.984 417.644 202.39 418.34 202.018C419.036 201.646 419.822 201.46 420.698 201.46C421.358 201.46 421.922 201.574 422.39 201.802C422.87 202.018 423.242 202.342 423.506 202.774C423.782 203.194 423.932 203.698 423.956 204.286L423.29 204.142C423.758 203.242 424.376 202.57 425.144 202.126C425.924 201.682 426.806 201.46 427.79 201.46ZM438.672 211.09C437.856 211.09 437.154 210.946 436.566 210.658C435.99 210.358 435.546 209.932 435.234 209.38C434.934 208.816 434.778 208.138 434.766 207.346C434.766 206.182 434.976 205.162 435.396 204.286C435.816 203.398 436.41 202.708 437.178 202.216C437.946 201.712 438.852 201.46 439.896 201.46C440.712 201.46 441.426 201.622 442.038 201.946C442.662 202.258 443.148 202.714 443.496 203.314C443.856 203.914 444.036 204.628 444.036 205.456C444.036 206.272 443.904 207.022 443.64 207.706C443.376 208.39 442.998 208.984 442.506 209.488C442.026 209.992 441.462 210.388 440.814 210.676C440.166 210.952 439.452 211.09 438.672 211.09ZM432.714 214.492L435.288 201.55H436.512L435.972 204.268L435.45 206.158L435.252 208.138L433.992 214.492H432.714ZM438.654 209.956C439.446 209.956 440.148 209.77 440.76 209.398C441.372 209.014 441.852 208.486 442.2 207.814C442.56 207.142 442.74 206.38 442.74 205.528C442.74 204.592 442.47 203.866 441.93 203.35C441.39 202.834 440.622 202.576 439.626 202.576C438.846 202.576 438.144 202.768 437.52 203.152C436.908 203.536 436.422 204.064 436.062 204.736C435.714 205.396 435.54 206.158 435.54 207.022C435.54 207.946 435.81 208.666 436.35 209.182C436.89 209.698 437.658 209.956 438.654 209.956ZM445.616 211L447.488 201.55H448.712L448.172 204.34L448.028 203.854C448.448 203.026 449 202.42 449.684 202.036C450.38 201.652 451.244 201.46 452.276 201.46L452.042 202.702C451.982 202.702 451.922 202.702 451.862 202.702C451.814 202.69 451.754 202.684 451.682 202.684C450.674 202.684 449.84 202.978 449.18 203.566C448.532 204.142 448.088 205.018 447.848 206.194L446.894 211H445.616ZM456.644 211.09C455.84 211.09 455.126 210.928 454.502 210.604C453.878 210.28 453.392 209.818 453.044 209.218C452.696 208.618 452.522 207.904 452.522 207.076C452.522 206.272 452.654 205.528 452.918 204.844C453.182 204.16 453.554 203.566 454.034 203.062C454.514 202.546 455.078 202.15 455.726 201.874C456.386 201.598 457.1 201.46 457.868 201.46C458.696 201.46 459.398 201.61 459.974 201.91C460.55 202.198 460.994 202.624 461.306 203.188C461.618 203.74 461.774 204.412 461.774 205.204C461.774 206.344 461.564 207.358 461.144 208.246C460.724 209.134 460.13 209.83 459.362 210.334C458.594 210.838 457.688 211.09 456.644 211.09ZM456.914 209.956C457.706 209.956 458.408 209.77 459.02 209.398C459.644 209.014 460.13 208.486 460.478 207.814C460.838 207.142 461.018 206.38 461.018 205.528C461.018 204.592 460.742 203.866 460.19 203.35C459.65 202.834 458.888 202.576 457.904 202.576C457.124 202.576 456.422 202.768 455.798 203.152C455.174 203.536 454.682 204.064 454.322 204.736C453.974 205.396 453.8 206.158 453.8 207.022C453.8 207.946 454.07 208.666 454.61 209.182C455.162 209.698 455.93 209.956 456.914 209.956ZM460.028 211L460.568 208.282L461.108 206.374L461.288 204.394L461.864 201.55H463.142L461.252 211H460.028Z" fill="white"/>
<defs>
<filter id="filter0_d_304_2822" x="0" y="0" width="506" height="250" filterUnits="userSpaceOnUse" color-interpolation-filters="sRGB">
<feFlood flood-opacity="0" result="BackgroundImageFix"/>
<feColorMatrix in="SourceAlpha" type="matrix" values="0 0 0 0 0 0 0 0 0 0 0 0 0 0 0 0 0 0 127 0" result="hardAlpha"/>
<feOffset dx="4" dy="4"/>
<feGaussianBlur stdDeviation="5"/>
<feComposite in2="hardAlpha" operator="out"/>
<feColorMatrix type="matrix" values="0 0 0 0 0.235294 0 0 0 0 0.0196078 0 0 0 0 0.780392 0 0 0 0.4 0"/>
<feBlend mode="normal" in2="BackgroundImageFix" result="effect1_dropShadow_304_2822"/>
<feBlend mode="normal" in="SourceGraphic" in2="effect1_dropShadow_304_2822" result="shape"/>
</filter>
<linearGradient id="paint0_linear_304_2822" x1="484" y1="224.5" x2="17" y2="14.5" gradientUnits="userSpaceOnUse">
<stop stop-color="#BC6FF1"/>
<stop offset="0.475962" stop-color="#9C55E7"/>
<stop offset="0.615385" stop-color="#7C3ADC"/>
<stop offset="0.8125" stop-color="#3C05C7"/>
</linearGradient>
</defs>
</svg>
