<svg width="506" height="250" viewBox="0 0 506 250" fill="none" xmlns="http://www.w3.org/2000/svg">
<g filter="url(#filter0_d_304_2837)">
<path d="M6 26C6 14.9543 14.9543 6 26 6H472C483.046 6 492 14.9543 492 26V216C492 227.046 483.046 236 472 236H26C14.9543 236 6 227.046 6 216V26Z" fill="url(#paint0_linear_304_2837)"/>
</g>
<path d="M39.04 98V48.79H45.69L48.56 58.31V98H39.04ZM73.06 98L43.87 60.2L45.69 48.79L74.88 86.59L73.06 98ZM73.06 98L70.33 88.76V48.79H79.92V98H73.06ZM112.929 98.77C109.336 98.77 105.976 98.1167 102.849 96.81C99.7694 95.5033 97.0627 93.7067 94.7294 91.42C92.4427 89.0867 90.646 86.38 89.3394 83.3C88.0327 80.1733 87.3794 76.8367 87.3794 73.29C87.3794 69.7433 88.0094 66.4533 89.2694 63.42C90.576 60.34 92.3727 57.6567 94.6594 55.37C96.9927 53.0367 99.6994 51.24 102.779 49.98C105.859 48.6733 109.196 48.02 112.789 48.02C116.429 48.02 119.789 48.6733 122.869 49.98C125.949 51.24 128.633 53.0367 130.919 55.37C133.253 57.6567 135.073 60.34 136.379 63.42C137.686 66.5 138.339 69.8133 138.339 73.36C138.339 76.9067 137.686 80.22 136.379 83.3C135.073 86.38 133.253 89.0867 130.919 91.42C128.633 93.7067 125.949 95.5033 122.869 96.81C119.836 98.1167 116.523 98.77 112.929 98.77ZM112.789 89.88C115.963 89.88 118.716 89.18 121.049 87.78C123.383 86.38 125.203 84.4433 126.509 81.97C127.863 79.4967 128.539 76.6033 128.539 73.29C128.539 70.8633 128.166 68.6467 127.419 66.64C126.673 64.6333 125.599 62.9067 124.199 61.46C122.799 59.9667 121.143 58.8233 119.229 58.03C117.316 57.2367 115.169 56.84 112.789 56.84C109.709 56.84 106.979 57.54 104.599 58.94C102.266 60.2933 100.423 62.2067 99.0694 64.68C97.7627 67.1533 97.1094 70.0233 97.1094 73.29C97.1094 75.7633 97.4827 78.0267 98.2294 80.08C99.0227 82.1333 100.096 83.8833 101.449 85.33C102.849 86.7767 104.506 87.8967 106.419 88.69C108.379 89.4833 110.503 89.88 112.789 89.88ZM159.38 98L139.99 48.79H150.28L165.26 88.62H161.27L176.39 48.79H186.54L166.94 98H159.38ZM182.92 98L202.73 48.79H210.5L230.24 98H220.09L204.83 57.61H208.33L192.86 98H182.92ZM193.42 88.83V80.85H219.88V88.83H193.42Z" fill="white"/>
<path d="M147.86 181.7C144.267 181.7 140.93 181.07 137.85 179.81C134.77 178.503 132.063 176.707 129.73 174.42C127.443 172.087 125.67 169.38 124.41 166.3C123.197 163.22 122.59 159.907 122.59 156.36C122.59 152.813 123.197 149.5 124.41 146.42C125.67 143.34 127.443 140.657 129.73 138.37C132.063 136.083 134.747 134.287 137.78 132.98C140.86 131.673 144.22 131.02 147.86 131.02C151.78 131.02 155.233 131.673 158.22 132.98C161.207 134.24 163.843 135.99 166.13 138.23L159.69 144.67C158.337 143.177 156.68 142.01 154.72 141.17C152.76 140.33 150.473 139.91 147.86 139.91C145.573 139.91 143.473 140.307 141.56 141.1C139.693 141.847 138.06 142.967 136.66 144.46C135.26 145.907 134.187 147.657 133.44 149.71C132.693 151.717 132.32 153.933 132.32 156.36C132.32 158.833 132.693 161.073 133.44 163.08C134.187 165.087 135.26 166.837 136.66 168.33C138.06 169.777 139.693 170.897 141.56 171.69C143.473 172.483 145.573 172.88 147.86 172.88C150.613 172.88 152.97 172.46 154.93 171.62C156.937 170.78 158.617 169.59 159.97 168.05L166.41 174.49C164.123 176.777 161.463 178.55 158.43 179.81C155.397 181.07 151.873 181.7 147.86 181.7ZM194.076 181.77C190.483 181.77 187.123 181.117 183.996 179.81C180.916 178.503 178.209 176.707 175.876 174.42C173.589 172.087 171.793 169.38 170.486 166.3C169.179 163.173 168.526 159.837 168.526 156.29C168.526 152.743 169.156 149.453 170.416 146.42C171.723 143.34 173.519 140.657 175.806 138.37C178.139 136.037 180.846 134.24 183.926 132.98C187.006 131.673 190.343 131.02 193.936 131.02C197.576 131.02 200.936 131.673 204.016 132.98C207.096 134.24 209.779 136.037 212.066 138.37C214.399 140.657 216.219 143.34 217.526 146.42C218.833 149.5 219.486 152.813 219.486 156.36C219.486 159.907 218.833 163.22 217.526 166.3C216.219 169.38 214.399 172.087 212.066 174.42C209.779 176.707 207.096 178.503 204.016 179.81C200.983 181.117 197.669 181.77 194.076 181.77ZM193.936 172.88C197.109 172.88 199.863 172.18 202.196 170.78C204.529 169.38 206.349 167.443 207.656 164.97C209.009 162.497 209.686 159.603 209.686 156.29C209.686 153.863 209.313 151.647 208.566 149.64C207.819 147.633 206.746 145.907 205.346 144.46C203.946 142.967 202.289 141.823 200.376 141.03C198.463 140.237 196.316 139.84 193.936 139.84C190.856 139.84 188.126 140.54 185.746 141.94C183.413 143.293 181.569 145.207 180.216 147.68C178.909 150.153 178.256 153.023 178.256 156.29C178.256 158.763 178.629 161.027 179.376 163.08C180.169 165.133 181.243 166.883 182.596 168.33C183.996 169.777 185.653 170.897 187.566 171.69C189.526 172.483 191.649 172.88 193.936 172.88ZM227.032 181V131.79H236.552V181H227.032ZM234.032 181V172.53H259.092V181H234.032ZM265.929 181V131.79H275.449V181H265.929ZM272.929 181V172.6H300.159V181H272.929ZM272.929 159.93V151.81H297.709V159.93H272.929ZM272.929 140.19V131.79H299.809V140.19H272.929ZM329.969 181.7C326.376 181.7 323.039 181.07 319.959 179.81C316.879 178.503 314.173 176.707 311.839 174.42C309.553 172.087 307.779 169.38 306.519 166.3C305.306 163.22 304.699 159.907 304.699 156.36C304.699 152.813 305.306 149.5 306.519 146.42C307.779 143.34 309.553 140.657 311.839 138.37C314.173 136.083 316.856 134.287 319.889 132.98C322.969 131.673 326.329 131.02 329.969 131.02C333.889 131.02 337.343 131.673 340.329 132.98C343.316 134.24 345.953 135.99 348.239 138.23L341.799 144.67C340.446 143.177 338.789 142.01 336.829 141.17C334.869 140.33 332.583 139.91 329.969 139.91C327.683 139.91 325.583 140.307 323.669 141.1C321.803 141.847 320.169 142.967 318.769 144.46C317.369 145.907 316.296 147.657 315.549 149.71C314.803 151.717 314.429 153.933 314.429 156.36C314.429 158.833 314.803 161.073 315.549 163.08C316.296 165.087 317.369 166.837 318.769 168.33C320.169 169.777 321.803 170.897 323.669 171.69C325.583 172.483 327.683 172.88 329.969 172.88C332.723 172.88 335.079 172.46 337.039 171.62C339.046 170.78 340.726 169.59 342.079 168.05L348.519 174.49C346.233 176.777 343.573 178.55 340.539 179.81C337.506 181.07 333.983 181.7 329.969 181.7ZM326.959 195.84C325.186 195.84 323.646 195.63 322.339 195.21C321.033 194.79 319.726 194.183 318.419 193.39L321.709 189.26C322.269 189.68 322.899 190.03 323.599 190.31C324.346 190.59 325.209 190.73 326.189 190.73C327.263 190.73 328.033 190.567 328.499 190.24C329.013 189.96 329.269 189.61 329.269 189.19C329.269 188.677 329.013 188.233 328.499 187.86C328.033 187.533 327.263 187.37 326.189 187.37H323.249L325.559 180.09H331.369L329.619 185.13L326.679 182.82C329.666 182.773 332.023 183.357 333.749 184.57C335.523 185.83 336.409 187.417 336.409 189.33C336.409 191.197 335.546 192.737 333.819 193.95C332.093 195.21 329.806 195.84 326.959 195.84ZM350.267 181L370.077 131.79H377.847L397.587 181H387.437L372.177 140.61H375.677L360.207 181H350.267ZM360.767 171.83V163.85H387.227V171.83H360.767ZM379.037 127.45C377.497 127.45 376.191 127.17 375.117 126.61C374.044 126.05 373.041 125.513 372.107 125C371.174 124.487 370.171 124.23 369.097 124.23C367.977 124.23 367.044 124.44 366.297 124.86C365.597 125.28 364.921 125.933 364.267 126.82L359.647 122.2C361.001 120.427 362.377 119.073 363.777 118.14C365.224 117.207 366.904 116.74 368.817 116.74C370.357 116.74 371.664 117.02 372.737 117.58C373.811 118.093 374.814 118.63 375.747 119.19C376.681 119.703 377.684 119.96 378.757 119.96C379.924 119.96 380.857 119.75 381.557 119.33C382.304 118.863 382.981 118.21 383.587 117.37L388.207 121.92C386.854 123.693 385.454 125.07 384.007 126.05C382.607 126.983 380.951 127.45 379.037 127.45ZM423.627 181.77C420.033 181.77 416.673 181.117 413.547 179.81C410.467 178.503 407.76 176.707 405.427 174.42C403.14 172.087 401.343 169.38 400.037 166.3C398.73 163.173 398.077 159.837 398.077 156.29C398.077 152.743 398.707 149.453 399.967 146.42C401.273 143.34 403.07 140.657 405.357 138.37C407.69 136.037 410.397 134.24 413.477 132.98C416.557 131.673 419.893 131.02 423.487 131.02C427.127 131.02 430.487 131.673 433.567 132.98C436.647 134.24 439.33 136.037 441.617 138.37C443.95 140.657 445.77 143.34 447.077 146.42C448.383 149.5 449.037 152.813 449.037 156.36C449.037 159.907 448.383 163.22 447.077 166.3C445.77 169.38 443.95 172.087 441.617 174.42C439.33 176.707 436.647 178.503 433.567 179.81C430.533 181.117 427.22 181.77 423.627 181.77ZM423.487 172.88C426.66 172.88 429.413 172.18 431.747 170.78C434.08 169.38 435.9 167.443 437.207 164.97C438.56 162.497 439.237 159.603 439.237 156.29C439.237 153.863 438.863 151.647 438.117 149.64C437.37 147.633 436.297 145.907 434.897 144.46C433.497 142.967 431.84 141.823 429.927 141.03C428.013 140.237 425.867 139.84 423.487 139.84C420.407 139.84 417.677 140.54 415.297 141.94C412.963 143.293 411.12 145.207 409.767 147.68C408.46 150.153 407.807 153.023 407.807 156.29C407.807 158.763 408.18 161.027 408.927 163.08C409.72 165.133 410.793 166.883 412.147 168.33C413.547 169.777 415.203 170.897 417.117 171.69C419.077 172.483 421.2 172.88 423.487 172.88Z" fill="white"/>
<line x1="6" y1="109.5" x2="492" y2="109.5" stroke="white" stroke-width="3"/>
<defs>
<filter id="filter0_d_304_2837" x="0" y="0" width="506" height="250" filterUnits="userSpaceOnUse" color-interpolation-filters="sRGB">
<feFlood flood-opacity="0" result="BackgroundImageFix"/>
<feColorMatrix in="SourceAlpha" type="matrix" values="0 0 0 0 0 0 0 0 0 0 0 0 0 0 0 0 0 0 127 0" result="hardAlpha"/>
<feOffset dx="4" dy="4"/>
<feGaussianBlur stdDeviation="5"/>
<feComposite in2="hardAlpha" operator="out"/>
<feColorMatrix type="matrix" values="0 0 0 0 0.235294 0 0 0 0 0.0196078 0 0 0 0 0.780392 0 0 0 0.4 0"/>
<feBlend mode="normal" in2="BackgroundImageFix" result="effect1_dropShadow_304_2837"/>
<feBlend mode="normal" in="SourceGraphic" in2="effect1_dropShadow_304_2837" result="shape"/>
</filter>
<linearGradient id="paint0_linear_304_2837" x1="484" y1="224.5" x2="17" y2="14.5" gradientUnits="userSpaceOnUse">
<stop stop-color="#BC6FF1"/>
<stop offset="0.475962" stop-color="#9C55E7"/>
<stop offset="0.615385" stop-color="#7C3ADC"/>
<stop offset="0.8125" stop-color="#3C05C7"/>
</linearGradient>
</defs>
</svg>
