<svg width="506" height="250" viewBox="0 0 506 250" fill="none" xmlns="http://www.w3.org/2000/svg">
<g filter="url(#filter0_d_304_2830)">
<path d="M6 26C6 14.9543 14.9543 6 26 6H472C483.046 6 492 14.9543 492 26V216C492 227.046 483.046 236 472 236H26C14.9543 236 6 227.046 6 216V26Z" fill="url(#paint0_linear_304_2830)"/>
</g>
<path d="M110.739 79.73V71.96H122.149C123.643 71.96 124.996 71.6567 126.209 71.05C127.423 70.4433 128.379 69.58 129.079 68.46C129.779 67.2933 130.129 65.8933 130.129 64.26C130.129 62.6733 129.779 61.2967 129.079 60.13C128.379 58.9633 127.423 58.0767 126.209 57.47C124.996 56.8633 123.643 56.56 122.149 56.56H110.739V48.79H123.129C126.256 48.79 129.056 49.42 131.529 50.68C134.049 51.94 136.033 53.7367 137.479 56.07C138.926 58.3567 139.649 61.0867 139.649 64.26C139.649 67.4333 138.926 70.1867 137.479 72.52C136.033 74.8067 134.049 76.58 131.529 77.84C129.056 79.1 126.256 79.73 123.129 79.73H110.739ZM103.739 98V48.79H113.259V98H103.739ZM153.395 77.42V70H164.805C167.139 70 168.935 69.4167 170.195 68.25C171.502 67.0367 172.155 65.38 172.155 63.28C172.155 61.3667 171.502 59.78 170.195 58.52C168.935 57.2133 167.139 56.56 164.805 56.56H153.395V48.79H165.645C168.819 48.79 171.595 49.42 173.975 50.68C176.402 51.8933 178.269 53.5733 179.575 55.72C180.929 57.8667 181.605 60.34 181.605 63.14C181.605 66.0333 180.929 68.5533 179.575 70.7C178.269 72.8 176.402 74.4567 173.975 75.67C171.549 76.8367 168.725 77.42 165.505 77.42H153.395ZM146.395 98V48.79H155.915V98H146.395ZM173.275 98L157.035 76.72L165.785 73.99L184.825 98H173.275ZM212.834 98.77C209.24 98.77 205.88 98.1167 202.754 96.81C199.674 95.5033 196.967 93.7067 194.634 91.42C192.347 89.0867 190.55 86.38 189.244 83.3C187.937 80.1733 187.284 76.8367 187.284 73.29C187.284 69.7433 187.914 66.4533 189.174 63.42C190.48 60.34 192.277 57.6567 194.564 55.37C196.897 53.0367 199.604 51.24 202.684 49.98C205.764 48.6733 209.1 48.02 212.694 48.02C216.334 48.02 219.694 48.6733 222.774 49.98C225.854 51.24 228.537 53.0367 230.824 55.37C233.157 57.6567 234.977 60.34 236.284 63.42C237.59 66.5 238.244 69.8133 238.244 73.36C238.244 76.9067 237.59 80.22 236.284 83.3C234.977 86.38 233.157 89.0867 230.824 91.42C228.537 93.7067 225.854 95.5033 222.774 96.81C219.74 98.1167 216.427 98.77 212.834 98.77ZM212.694 89.88C215.867 89.88 218.62 89.18 220.954 87.78C223.287 86.38 225.107 84.4433 226.414 81.97C227.767 79.4967 228.444 76.6033 228.444 73.29C228.444 70.8633 228.07 68.6467 227.324 66.64C226.577 64.6333 225.504 62.9067 224.104 61.46C222.704 59.9667 221.047 58.8233 219.134 58.03C217.22 57.2367 215.074 56.84 212.694 56.84C209.614 56.84 206.884 57.54 204.504 58.94C202.17 60.2933 200.327 62.2067 198.974 64.68C197.667 67.1533 197.014 70.0233 197.014 73.29C197.014 75.7633 197.387 78.0267 198.134 80.08C198.927 82.1333 200 83.8833 201.354 85.33C202.754 86.7767 204.41 87.8967 206.324 88.69C208.284 89.4833 210.407 89.88 212.694 89.88ZM252.3 98V89.53H264.83C268.003 89.53 270.78 88.8767 273.16 87.57C275.54 86.2167 277.383 84.3267 278.69 81.9C280.043 79.4733 280.72 76.6033 280.72 73.29C280.72 70.07 280.043 67.27 278.69 64.89C277.337 62.4633 275.47 60.5967 273.09 59.29C270.71 57.9367 267.957 57.26 264.83 57.26H252.09V48.79H264.97C268.61 48.79 271.97 49.3967 275.05 50.61C278.177 51.8233 280.883 53.55 283.17 55.79C285.503 57.9833 287.3 60.5733 288.56 63.56C289.867 66.5467 290.52 69.8133 290.52 73.36C290.52 76.9067 289.867 80.1967 288.56 83.23C287.3 86.2167 285.527 88.83 283.24 91.07C280.953 93.2633 278.247 94.9667 275.12 96.18C272.04 97.3933 268.703 98 265.11 98H252.3ZM245.79 98V48.79H255.31V98H245.79ZM317.475 98.7C313.602 98.7 310.148 97.86 307.115 96.18C304.128 94.4533 301.772 92.0967 300.045 89.11C298.318 86.1233 297.455 82.74 297.455 78.96V48.79H306.975V79.24C306.975 81.4333 307.418 83.3233 308.305 84.91C309.238 86.4967 310.498 87.7333 312.085 88.62C313.718 89.46 315.515 89.88 317.475 89.88C319.482 89.88 321.255 89.46 322.795 88.62C324.335 87.7333 325.548 86.4967 326.435 84.91C327.368 83.3233 327.835 81.4567 327.835 79.31V48.79H337.425V79.03C337.425 82.81 336.562 86.1933 334.835 89.18C333.108 92.12 330.752 94.4533 327.765 96.18C324.825 97.86 321.395 98.7 317.475 98.7ZM358.527 98V49.84H368.117V98H358.527ZM342.847 57.26V48.79H383.797V57.26H342.847ZM410.461 98.77C406.867 98.77 403.507 98.1167 400.381 96.81C397.301 95.5033 394.594 93.7067 392.261 91.42C389.974 89.0867 388.177 86.38 386.871 83.3C385.564 80.1733 384.911 76.8367 384.911 73.29C384.911 69.7433 385.541 66.4533 386.801 63.42C388.107 60.34 389.904 57.6567 392.191 55.37C394.524 53.0367 397.231 51.24 400.311 49.98C403.391 48.6733 406.727 48.02 410.321 48.02C413.961 48.02 417.321 48.6733 420.401 49.98C423.481 51.24 426.164 53.0367 428.451 55.37C430.784 57.6567 432.604 60.34 433.911 63.42C435.217 66.5 435.871 69.8133 435.871 73.36C435.871 76.9067 435.217 80.22 433.911 83.3C432.604 86.38 430.784 89.0867 428.451 91.42C426.164 93.7067 423.481 95.5033 420.401 96.81C417.367 98.1167 414.054 98.77 410.461 98.77ZM410.321 89.88C413.494 89.88 416.247 89.18 418.581 87.78C420.914 86.38 422.734 84.4433 424.041 81.97C425.394 79.4967 426.071 76.6033 426.071 73.29C426.071 70.8633 425.697 68.6467 424.951 66.64C424.204 64.6333 423.131 62.9067 421.731 61.46C420.331 59.9667 418.674 58.8233 416.761 58.03C414.847 57.2367 412.701 56.84 410.321 56.84C407.241 56.84 404.511 57.54 402.131 58.94C399.797 60.2933 397.954 62.2067 396.601 64.68C395.294 67.1533 394.641 70.0233 394.641 73.29C394.641 75.7633 395.014 78.0267 395.761 80.08C396.554 82.1333 397.627 83.8833 398.981 85.33C400.381 86.7767 402.037 87.8967 403.951 88.69C405.911 89.4833 408.034 89.88 410.321 89.88ZM456.466 98.7C452.5 98.7 449.093 98.0233 446.246 96.67C443.446 95.3167 440.903 93.2867 438.616 90.58L444.916 84.28C446.363 86.1933 448.043 87.6867 449.956 88.76C451.87 89.7867 454.203 90.3 456.956 90.3C459.43 90.3 461.39 89.81 462.836 88.83C464.33 87.85 465.076 86.4967 465.076 84.77C465.076 83.2767 464.656 82.0633 463.816 81.13C462.976 80.1967 461.856 79.4033 460.456 78.75C459.103 78.0967 457.586 77.5133 455.906 77C454.273 76.44 452.616 75.81 450.936 75.11C449.303 74.41 447.786 73.5467 446.386 72.52C445.033 71.4467 443.936 70.0933 443.096 68.46C442.256 66.78 441.836 64.68 441.836 62.16C441.836 59.1733 442.56 56.63 444.006 54.53C445.453 52.43 447.436 50.82 449.956 49.7C452.476 48.58 455.323 48.02 458.496 48.02C461.856 48.02 464.89 48.65 467.596 49.91C470.303 51.17 472.52 52.8033 474.246 54.81L467.946 61.11C466.5 59.5233 465.006 58.3567 463.466 57.61C461.973 56.8633 460.27 56.49 458.356 56.49C456.163 56.49 454.436 56.91 453.176 57.75C451.916 58.59 451.286 59.8033 451.286 61.39C451.286 62.7433 451.706 63.84 452.546 64.68C453.386 65.52 454.483 66.2433 455.836 66.85C457.236 67.4567 458.753 68.04 460.386 68.6C462.066 69.16 463.723 69.79 465.356 70.49C467.036 71.19 468.553 72.1 469.906 73.22C471.306 74.34 472.426 75.7867 473.266 77.56C474.106 79.2867 474.526 81.4333 474.526 84C474.526 88.5733 472.916 92.1667 469.696 94.78C466.476 97.3933 462.066 98.7 456.466 98.7Z" fill="white"/>
<path d="M62.07 181.77C58.4767 181.77 55.1167 181.117 51.99 179.81C48.91 178.503 46.2033 176.707 43.87 174.42C41.5833 172.087 39.7867 169.38 38.48 166.3C37.1733 163.173 36.52 159.837 36.52 156.29C36.52 152.743 37.15 149.453 38.41 146.42C39.7167 143.34 41.5133 140.657 43.8 138.37C46.1333 136.037 48.84 134.24 51.92 132.98C55 131.673 58.3367 131.02 61.93 131.02C65.57 131.02 68.93 131.673 72.01 132.98C75.09 134.24 77.7733 136.037 80.06 138.37C82.3933 140.657 84.2133 143.34 85.52 146.42C86.8267 149.5 87.48 152.813 87.48 156.36C87.48 159.907 86.8267 163.22 85.52 166.3C84.2133 169.38 82.3933 172.087 80.06 174.42C77.7733 176.707 75.09 178.503 72.01 179.81C68.9767 181.117 65.6633 181.77 62.07 181.77ZM61.93 172.88C65.1033 172.88 67.8567 172.18 70.19 170.78C72.5233 169.38 74.3433 167.443 75.65 164.97C77.0033 162.497 77.68 159.603 77.68 156.29C77.68 153.863 77.3067 151.647 76.56 149.64C75.8133 147.633 74.74 145.907 73.34 144.46C71.94 142.967 70.2833 141.823 68.37 141.03C66.4567 140.237 64.31 139.84 61.93 139.84C58.85 139.84 56.12 140.54 53.74 141.94C51.4067 143.293 49.5633 145.207 48.21 147.68C46.9033 150.153 46.25 153.023 46.25 156.29C46.25 158.763 46.6233 161.027 47.37 163.08C48.1633 165.133 49.2367 166.883 50.59 168.33C51.99 169.777 53.6467 170.897 55.56 171.69C57.52 172.483 59.6433 172.88 61.93 172.88ZM102.026 160.42V153H113.436C115.77 153 117.566 152.417 118.826 151.25C120.133 150.037 120.786 148.38 120.786 146.28C120.786 144.367 120.133 142.78 118.826 141.52C117.566 140.213 115.77 139.56 113.436 139.56H102.026V131.79H114.276C117.45 131.79 120.226 132.42 122.606 133.68C125.033 134.893 126.9 136.573 128.206 138.72C129.56 140.867 130.236 143.34 130.236 146.14C130.236 149.033 129.56 151.553 128.206 153.7C126.9 155.8 125.033 157.457 122.606 158.67C120.18 159.837 117.356 160.42 114.136 160.42H102.026ZM95.0263 181V131.79H104.546V181H95.0263ZM121.906 181L105.666 159.72L114.416 156.99L133.456 181H121.906ZM138.845 181V131.79H148.365V181H138.845ZM181.214 181.7C177.714 181.7 174.424 181.07 171.344 179.81C168.31 178.503 165.627 176.683 163.294 174.35C161.007 172.017 159.21 169.333 157.904 166.3C156.644 163.22 156.014 159.907 156.014 156.36C156.014 152.767 156.667 149.453 157.974 146.42C159.28 143.34 161.1 140.657 163.434 138.37C165.767 136.037 168.497 134.24 171.624 132.98C174.75 131.673 178.134 131.02 181.774 131.02C185.834 131.02 189.567 131.79 192.974 133.33C196.38 134.823 199.204 136.947 201.444 139.7L195.004 146.14C193.464 144.133 191.55 142.593 189.264 141.52C186.977 140.447 184.457 139.91 181.704 139.91C178.577 139.91 175.8 140.61 173.374 142.01C170.994 143.363 169.127 145.277 167.774 147.75C166.42 150.177 165.744 153.023 165.744 156.29C165.744 159.557 166.397 162.45 167.704 164.97C169.057 167.443 170.877 169.38 173.164 170.78C175.497 172.18 178.157 172.88 181.144 172.88C184.224 172.88 186.86 172.32 189.054 171.2C191.247 170.033 192.927 168.353 194.094 166.16C195.26 163.92 195.844 161.19 195.844 157.97L202.074 162.24L180.584 162.03V153.77H205.644V155.1C205.644 160.98 204.594 165.903 202.494 169.87C200.394 173.79 197.5 176.753 193.814 178.76C190.174 180.72 185.974 181.7 181.214 181.7ZM212.946 181V131.79H222.466V181H212.946ZM232.565 181V131.79H239.215L242.085 141.31V181H232.565ZM266.585 181L237.395 143.2L239.215 131.79L268.405 169.59L266.585 181ZM266.585 181L263.855 171.76V131.79H273.445V181H266.585ZM279.785 181L299.595 131.79H307.365L327.105 181H316.955L301.695 140.61H305.195L289.725 181H279.785ZM290.285 171.83V163.85H316.745V171.83H290.285ZM332.917 181V131.79H342.437V181H332.917ZM365.859 181.7C361.892 181.7 358.486 181.023 355.639 179.67C352.839 178.317 350.296 176.287 348.009 173.58L354.309 167.28C355.756 169.193 357.436 170.687 359.349 171.76C361.262 172.787 363.596 173.3 366.349 173.3C368.822 173.3 370.782 172.81 372.229 171.83C373.722 170.85 374.469 169.497 374.469 167.77C374.469 166.277 374.049 165.063 373.209 164.13C372.369 163.197 371.249 162.403 369.849 161.75C368.496 161.097 366.979 160.513 365.299 160C363.666 159.44 362.009 158.81 360.329 158.11C358.696 157.41 357.179 156.547 355.779 155.52C354.426 154.447 353.329 153.093 352.489 151.46C351.649 149.78 351.229 147.68 351.229 145.16C351.229 142.173 351.952 139.63 353.399 137.53C354.846 135.43 356.829 133.82 359.349 132.7C361.869 131.58 364.716 131.02 367.889 131.02C371.249 131.02 374.282 131.65 376.989 132.91C379.696 134.17 381.912 135.803 383.639 137.81L377.339 144.11C375.892 142.523 374.399 141.357 372.859 140.61C371.366 139.863 369.662 139.49 367.749 139.49C365.556 139.49 363.829 139.91 362.569 140.75C361.309 141.59 360.679 142.803 360.679 144.39C360.679 145.743 361.099 146.84 361.939 147.68C362.779 148.52 363.876 149.243 365.229 149.85C366.629 150.457 368.146 151.04 369.779 151.6C371.459 152.16 373.116 152.79 374.749 153.49C376.429 154.19 377.946 155.1 379.299 156.22C380.699 157.34 381.819 158.787 382.659 160.56C383.499 162.287 383.919 164.433 383.919 167C383.919 171.573 382.309 175.167 379.089 177.78C375.869 180.393 371.459 181.7 365.859 181.7Z" fill="white"/>
<line x1="6" y1="109.5" x2="492" y2="109.5" stroke="white" stroke-width="3"/>
<path d="M224.984 211.108C223.748 211.108 222.692 210.892 221.816 210.46C220.94 210.016 220.274 209.404 219.818 208.624C219.374 207.832 219.152 206.914 219.152 205.87C219.152 204.838 219.326 203.866 219.674 202.954C220.022 202.042 220.526 201.238 221.186 200.542C221.858 199.834 222.662 199.282 223.598 198.886C224.534 198.49 225.584 198.292 226.748 198.292C227.996 198.292 229.052 198.514 229.916 198.958C230.792 199.39 231.452 200.002 231.896 200.794C232.352 201.574 232.58 202.486 232.58 203.53C232.58 204.562 232.406 205.534 232.058 206.446C231.71 207.358 231.2 208.168 230.528 208.876C229.868 209.572 229.07 210.118 228.134 210.514C227.198 210.91 226.148 211.108 224.984 211.108ZM225.11 209.92C226.046 209.92 226.892 209.758 227.648 209.434C228.404 209.098 229.052 208.636 229.592 208.048C230.132 207.46 230.546 206.788 230.834 206.032C231.122 205.264 231.266 204.448 231.266 203.584C231.266 202.768 231.086 202.054 230.726 201.442C230.378 200.83 229.862 200.35 229.178 200.002C228.494 199.654 227.642 199.48 226.622 199.48C225.686 199.48 224.84 199.648 224.084 199.984C223.328 200.308 222.68 200.764 222.14 201.352C221.612 201.94 221.198 202.618 220.898 203.386C220.61 204.142 220.466 204.952 220.466 205.816C220.466 206.62 220.64 207.334 220.988 207.958C221.348 208.57 221.87 209.05 222.554 209.398C223.238 209.746 224.09 209.92 225.11 209.92ZM234.25 211L236.374 200.344C236.554 199.456 236.914 198.772 237.454 198.292C238.006 197.8 238.726 197.554 239.614 197.554C239.998 197.554 240.358 197.608 240.694 197.716C241.03 197.824 241.306 197.974 241.522 198.166L240.946 199.102C240.61 198.79 240.166 198.634 239.614 198.634C239.062 198.634 238.618 198.784 238.282 199.084C237.958 199.372 237.73 199.84 237.598 200.488L237.31 201.874L237.238 202.432L235.528 211H234.25ZM234.232 202.612L234.43 201.55H240.28L240.064 202.612H234.232ZM244.295 211.09C243.395 211.09 242.609 210.928 241.937 210.604C241.277 210.268 240.767 209.8 240.407 209.2C240.059 208.6 239.885 207.886 239.885 207.058C239.885 205.978 240.113 205.018 240.569 204.178C241.025 203.338 241.649 202.678 242.441 202.198C243.233 201.706 244.127 201.46 245.123 201.46C245.963 201.46 246.689 201.622 247.301 201.946C247.913 202.258 248.387 202.714 248.723 203.314C249.071 203.914 249.245 204.634 249.245 205.474C249.245 205.666 249.233 205.864 249.209 206.068C249.185 206.26 249.155 206.446 249.119 206.626H240.821L240.983 205.672H248.525L248.003 206.032C248.123 205.276 248.069 204.64 247.841 204.124C247.613 203.608 247.259 203.218 246.779 202.954C246.311 202.678 245.747 202.54 245.087 202.54C244.319 202.54 243.635 202.732 243.035 203.116C242.435 203.488 241.967 204.01 241.631 204.682C241.295 205.342 241.127 206.116 241.127 207.004C241.127 207.952 241.397 208.684 241.937 209.2C242.489 209.704 243.311 209.956 244.403 209.956C245.039 209.956 245.627 209.854 246.167 209.65C246.707 209.434 247.151 209.14 247.499 208.768L248.075 209.686C247.631 210.13 247.073 210.478 246.401 210.73C245.741 210.97 245.039 211.09 244.295 211.09ZM250.838 211L252.71 201.55H253.934L253.394 204.34L253.25 203.854C253.67 203.026 254.222 202.42 254.906 202.036C255.602 201.652 256.466 201.46 257.498 201.46L257.264 202.702C257.204 202.702 257.144 202.702 257.084 202.702C257.036 202.69 256.976 202.684 256.904 202.684C255.896 202.684 255.062 202.978 254.402 203.566C253.754 204.142 253.31 205.018 253.07 206.194L252.116 211H250.838ZM262.154 211.09C261.254 211.09 260.468 210.928 259.796 210.604C259.136 210.268 258.626 209.8 258.266 209.2C257.918 208.6 257.744 207.886 257.744 207.058C257.744 205.978 257.972 205.018 258.428 204.178C258.884 203.338 259.508 202.678 260.3 202.198C261.092 201.706 261.986 201.46 262.982 201.46C263.822 201.46 264.548 201.622 265.16 201.946C265.772 202.258 266.246 202.714 266.582 203.314C266.93 203.914 267.104 204.634 267.104 205.474C267.104 205.666 267.092 205.864 267.068 206.068C267.044 206.26 267.014 206.446 266.978 206.626H258.68L258.842 205.672H266.384L265.862 206.032C265.982 205.276 265.928 204.64 265.7 204.124C265.472 203.608 265.118 203.218 264.638 202.954C264.17 202.678 263.606 202.54 262.946 202.54C262.178 202.54 261.494 202.732 260.894 203.116C260.294 203.488 259.826 204.01 259.49 204.682C259.154 205.342 258.986 206.116 258.986 207.004C258.986 207.952 259.256 208.684 259.796 209.2C260.348 209.704 261.17 209.956 262.262 209.956C262.898 209.956 263.486 209.854 264.026 209.65C264.566 209.434 265.01 209.14 265.358 208.768L265.934 209.686C265.49 210.13 264.932 210.478 264.26 210.73C263.6 210.97 262.898 211.09 262.154 211.09ZM272.982 211.09C272.082 211.09 271.302 210.928 270.642 210.604C269.994 210.268 269.49 209.8 269.13 209.2C268.782 208.6 268.608 207.892 268.608 207.076C268.608 205.996 268.842 205.036 269.31 204.196C269.778 203.344 270.426 202.678 271.254 202.198C272.094 201.706 273.048 201.46 274.116 201.46C274.992 201.46 275.742 201.622 276.366 201.946C277.002 202.258 277.494 202.726 277.842 203.35L276.762 203.98C276.498 203.5 276.132 203.146 275.664 202.918C275.208 202.69 274.656 202.576 274.008 202.576C273.216 202.576 272.508 202.768 271.884 203.152C271.26 203.536 270.768 204.064 270.408 204.736C270.06 205.396 269.886 206.158 269.886 207.022C269.886 207.946 270.156 208.666 270.696 209.182C271.248 209.698 272.028 209.956 273.036 209.956C273.648 209.956 274.212 209.842 274.728 209.614C275.256 209.374 275.688 209.032 276.024 208.588L276.942 209.29C276.534 209.854 275.976 210.298 275.268 210.622C274.56 210.934 273.798 211.09 272.982 211.09ZM278.7 211L280.572 201.55H281.85L279.978 211H278.7ZM281.76 199.462C281.508 199.462 281.298 199.378 281.13 199.21C280.974 199.042 280.896 198.844 280.896 198.616C280.896 198.352 280.986 198.124 281.166 197.932C281.358 197.74 281.598 197.644 281.886 197.644C282.138 197.644 282.348 197.722 282.516 197.878C282.684 198.034 282.768 198.232 282.768 198.472C282.768 198.76 282.672 199 282.48 199.192C282.288 199.372 282.048 199.462 281.76 199.462ZM296.998 201.46C297.85 201.46 298.54 201.628 299.068 201.964C299.608 202.288 299.98 202.762 300.184 203.386C300.388 204.01 300.4 204.754 300.22 205.618L299.14 211H297.862L298.942 205.6C299.134 204.664 299.044 203.932 298.672 203.404C298.312 202.876 297.652 202.612 296.692 202.612C295.744 202.612 294.946 202.876 294.298 203.404C293.662 203.932 293.236 204.724 293.02 205.78L291.976 211H290.698L291.777 205.6C291.97 204.664 291.88 203.932 291.508 203.404C291.136 202.876 290.476 202.612 289.528 202.612C288.556 202.612 287.752 202.888 287.116 203.44C286.48 203.992 286.048 204.82 285.82 205.924L284.812 211H283.534L285.406 201.55H286.63L286.09 204.268L285.82 203.8C286.276 202.984 286.852 202.39 287.548 202.018C288.244 201.646 289.03 201.46 289.906 201.46C290.566 201.46 291.13 201.574 291.598 201.802C292.078 202.018 292.45 202.342 292.714 202.774C292.99 203.194 293.14 203.698 293.164 204.286L292.498 204.142C292.966 203.242 293.584 202.57 294.352 202.126C295.132 201.682 296.014 201.46 296.998 201.46ZM306.943 211.09C306.043 211.09 305.257 210.928 304.585 210.604C303.925 210.268 303.415 209.8 303.055 209.2C302.707 208.6 302.533 207.886 302.533 207.058C302.533 205.978 302.761 205.018 303.217 204.178C303.673 203.338 304.297 202.678 305.089 202.198C305.881 201.706 306.775 201.46 307.771 201.46C308.611 201.46 309.337 201.622 309.949 201.946C310.561 202.258 311.035 202.714 311.371 203.314C311.719 203.914 311.893 204.634 311.893 205.474C311.893 205.666 311.881 205.864 311.857 206.068C311.833 206.26 311.803 206.446 311.767 206.626H303.469L303.631 205.672H311.173L310.651 206.032C310.771 205.276 310.717 204.64 310.489 204.124C310.261 203.608 309.907 203.218 309.427 202.954C308.959 202.678 308.395 202.54 307.735 202.54C306.967 202.54 306.283 202.732 305.683 203.116C305.083 203.488 304.615 204.01 304.279 204.682C303.943 205.342 303.775 206.116 303.775 207.004C303.775 207.952 304.045 208.684 304.585 209.2C305.137 209.704 305.959 209.956 307.051 209.956C307.687 209.956 308.275 209.854 308.815 209.65C309.355 209.434 309.799 209.14 310.147 208.768L310.723 209.686C310.279 210.13 309.721 210.478 309.049 210.73C308.389 210.97 307.687 211.09 306.943 211.09ZM319.985 201.46C320.837 201.46 321.533 201.628 322.073 201.964C322.625 202.288 323.003 202.762 323.207 203.386C323.423 204.01 323.441 204.754 323.261 205.618L322.181 211H320.903L321.983 205.6C322.175 204.664 322.073 203.932 321.677 203.404C321.293 202.876 320.609 202.612 319.625 202.612C318.617 202.612 317.777 202.888 317.105 203.44C316.445 203.992 316.001 204.82 315.773 205.924L314.765 211H313.487L315.359 201.55H316.583L316.043 204.268L315.773 203.8C316.229 202.984 316.817 202.39 317.537 202.018C318.269 201.646 319.085 201.46 319.985 201.46ZM328.657 211.09C328.117 211.09 327.655 210.976 327.271 210.748C326.887 210.508 326.617 210.172 326.461 209.74C326.317 209.308 326.305 208.792 326.425 208.192L328.153 199.462H329.431L327.703 208.138C327.583 208.726 327.625 209.182 327.829 209.506C328.045 209.83 328.435 209.992 328.999 209.992C329.263 209.992 329.521 209.956 329.773 209.884C330.025 209.8 330.253 209.674 330.457 209.506L330.763 210.478C330.463 210.706 330.127 210.868 329.755 210.964C329.383 211.048 329.017 211.09 328.657 211.09ZM325.849 202.612L326.047 201.55H331.897L331.681 202.612H325.849ZM336.841 211.09C335.965 211.09 335.203 210.928 334.555 210.604C333.919 210.268 333.421 209.8 333.061 209.2C332.713 208.6 332.539 207.892 332.539 207.076C332.539 205.996 332.773 205.036 333.241 204.196C333.709 203.344 334.357 202.678 335.185 202.198C336.013 201.706 336.955 201.46 338.011 201.46C338.887 201.46 339.643 201.622 340.279 201.946C340.927 202.27 341.425 202.732 341.773 203.332C342.133 203.932 342.313 204.64 342.313 205.456C342.313 206.536 342.079 207.502 341.611 208.354C341.143 209.194 340.495 209.86 339.667 210.352C338.851 210.844 337.909 211.09 336.841 211.09ZM336.931 209.956C337.723 209.956 338.425 209.77 339.037 209.398C339.661 209.014 340.147 208.486 340.495 207.814C340.855 207.142 341.035 206.38 341.035 205.528C341.035 204.592 340.759 203.866 340.207 203.35C339.667 202.834 338.905 202.576 337.921 202.576C337.141 202.576 336.439 202.768 335.815 203.152C335.191 203.536 334.699 204.064 334.339 204.736C333.991 205.396 333.817 206.158 333.817 207.022C333.817 207.946 334.087 208.666 334.627 209.182C335.179 209.698 335.947 209.956 336.931 209.956ZM346.879 211L355.159 198.4H356.473L359.713 211H358.381L355.429 199.138H355.969L348.319 211H346.879ZM349.813 207.634L350.425 206.554H357.751L357.949 207.634H349.813ZM365.472 211.09C364.668 211.09 363.954 210.928 363.33 210.604C362.706 210.28 362.22 209.818 361.872 209.218C361.524 208.618 361.35 207.904 361.35 207.076C361.35 206.272 361.482 205.528 361.746 204.844C362.01 204.16 362.382 203.566 362.862 203.062C363.342 202.546 363.906 202.15 364.554 201.874C365.214 201.598 365.928 201.46 366.696 201.46C367.524 201.46 368.226 201.61 368.802 201.91C369.378 202.198 369.822 202.624 370.134 203.188C370.446 203.74 370.602 204.412 370.602 205.204C370.602 206.056 370.482 206.842 370.242 207.562C370.014 208.282 369.672 208.906 369.216 209.434C368.76 209.962 368.214 210.37 367.578 210.658C366.954 210.946 366.252 211.09 365.472 211.09ZM365.742 209.956C366.534 209.956 367.236 209.77 367.848 209.398C368.472 209.014 368.958 208.486 369.306 207.814C369.666 207.142 369.846 206.38 369.846 205.528C369.846 204.592 369.57 203.866 369.018 203.35C368.478 202.834 367.716 202.576 366.732 202.576C365.952 202.576 365.25 202.768 364.626 203.152C364.002 203.536 363.51 204.064 363.15 204.736C362.802 205.396 362.628 206.158 362.628 207.022C362.628 207.946 362.898 208.666 363.438 209.182C363.99 209.698 364.758 209.956 365.742 209.956ZM368.856 211L369.396 208.282L369.936 206.374L370.116 204.394L371.466 197.644H372.744L370.08 211H368.856ZM373.639 211L375.511 201.55H376.789L374.917 211H373.639ZM376.699 199.462C376.447 199.462 376.237 199.378 376.069 199.21C375.913 199.042 375.835 198.844 375.835 198.616C375.835 198.352 375.925 198.124 376.105 197.932C376.297 197.74 376.537 197.644 376.825 197.644C377.077 197.644 377.287 197.722 377.455 197.878C377.623 198.034 377.707 198.232 377.707 198.472C377.707 198.76 377.611 199 377.419 199.192C377.227 199.372 376.987 199.462 376.699 199.462ZM382.505 211.09C381.701 211.09 380.987 210.928 380.363 210.604C379.739 210.28 379.253 209.818 378.905 209.218C378.557 208.618 378.383 207.904 378.383 207.076C378.383 206.272 378.515 205.528 378.779 204.844C379.043 204.16 379.415 203.566 379.895 203.062C380.375 202.546 380.939 202.15 381.587 201.874C382.247 201.598 382.961 201.46 383.729 201.46C384.557 201.46 385.259 201.61 385.835 201.91C386.411 202.198 386.855 202.624 387.167 203.188C387.479 203.74 387.635 204.412 387.635 205.204C387.635 206.056 387.515 206.842 387.275 207.562C387.047 208.282 386.705 208.906 386.249 209.434C385.793 209.962 385.247 210.37 384.611 210.658C383.987 210.946 383.285 211.09 382.505 211.09ZM382.775 209.956C383.567 209.956 384.269 209.77 384.881 209.398C385.505 209.014 385.991 208.486 386.339 207.814C386.699 207.142 386.879 206.38 386.879 205.528C386.879 204.592 386.603 203.866 386.051 203.35C385.511 202.834 384.749 202.576 383.765 202.576C382.985 202.576 382.283 202.768 381.659 203.152C381.035 203.536 380.543 204.064 380.183 204.736C379.835 205.396 379.661 206.158 379.661 207.022C379.661 207.946 379.931 208.666 380.471 209.182C381.023 209.698 381.791 209.956 382.775 209.956ZM385.889 211L386.429 208.282L386.969 206.374L387.149 204.394L388.499 197.644H389.777L387.113 211H385.889ZM394.704 211.09C393.9 211.09 393.186 210.928 392.562 210.604C391.938 210.28 391.452 209.818 391.104 209.218C390.756 208.618 390.582 207.904 390.582 207.076C390.582 206.272 390.714 205.528 390.978 204.844C391.242 204.16 391.614 203.566 392.094 203.062C392.574 202.546 393.138 202.15 393.786 201.874C394.446 201.598 395.16 201.46 395.928 201.46C396.756 201.46 397.458 201.61 398.034 201.91C398.61 202.198 399.054 202.624 399.366 203.188C399.678 203.74 399.834 204.412 399.834 205.204C399.834 206.344 399.624 207.358 399.204 208.246C398.784 209.134 398.19 209.83 397.422 210.334C396.654 210.838 395.748 211.09 394.704 211.09ZM394.974 209.956C395.766 209.956 396.468 209.77 397.08 209.398C397.704 209.014 398.19 208.486 398.538 207.814C398.898 207.142 399.078 206.38 399.078 205.528C399.078 204.592 398.802 203.866 398.25 203.35C397.71 202.834 396.948 202.576 395.964 202.576C395.184 202.576 394.482 202.768 393.858 203.152C393.234 203.536 392.742 204.064 392.382 204.736C392.034 205.396 391.86 206.158 391.86 207.022C391.86 207.946 392.13 208.666 392.67 209.182C393.222 209.698 393.99 209.956 394.974 209.956ZM398.088 211L398.628 208.282L399.168 206.374L399.348 204.394L399.924 201.55H401.202L399.312 211H398.088ZM405.625 211.09C404.857 211.09 404.131 210.982 403.447 210.766C402.763 210.55 402.235 210.274 401.863 209.938L402.475 208.93C402.835 209.254 403.309 209.512 403.897 209.704C404.485 209.884 405.103 209.974 405.751 209.974C406.651 209.974 407.341 209.824 407.821 209.524C408.313 209.224 408.559 208.81 408.559 208.282C408.559 207.922 408.427 207.652 408.163 207.472C407.911 207.28 407.581 207.136 407.173 207.04C406.765 206.932 406.333 206.83 405.877 206.734C405.421 206.638 404.989 206.518 404.581 206.374C404.173 206.218 403.837 205.984 403.573 205.672C403.321 205.36 403.195 204.94 403.195 204.412C403.195 203.812 403.363 203.29 403.699 202.846C404.047 202.402 404.527 202.06 405.139 201.82C405.751 201.58 406.471 201.46 407.299 201.46C407.899 201.46 408.493 201.538 409.081 201.694C409.669 201.85 410.143 202.066 410.503 202.342L409.963 203.368C409.591 203.08 409.159 202.876 408.667 202.756C408.175 202.624 407.683 202.558 407.191 202.558C406.315 202.558 405.637 202.72 405.157 203.044C404.689 203.356 404.455 203.77 404.455 204.286C404.455 204.646 404.581 204.922 404.833 205.114C405.097 205.306 405.433 205.456 405.841 205.564C406.249 205.672 406.681 205.774 407.137 205.87C407.605 205.954 408.037 206.074 408.433 206.23C408.841 206.386 409.171 206.614 409.423 206.914C409.687 207.202 409.819 207.61 409.819 208.138C409.819 208.762 409.645 209.296 409.297 209.74C408.949 210.172 408.457 210.508 407.821 210.748C407.197 210.976 406.465 211.09 405.625 211.09ZM416.641 211L419.161 198.4H424.543C425.755 198.4 426.703 198.628 427.387 199.084C428.071 199.54 428.413 200.206 428.413 201.082C428.413 201.898 428.215 202.582 427.819 203.134C427.423 203.674 426.901 204.082 426.253 204.358C425.617 204.634 424.927 204.772 424.183 204.772L424.579 204.358C425.587 204.358 426.385 204.592 426.973 205.06C427.573 205.516 427.873 206.194 427.873 207.094C427.873 207.934 427.651 208.648 427.207 209.236C426.775 209.824 426.157 210.268 425.353 210.568C424.549 210.856 423.595 211 422.491 211H416.641ZM418.171 209.902H422.599C423.859 209.902 424.831 209.662 425.515 209.182C426.211 208.702 426.559 208.012 426.559 207.112C426.559 206.392 426.307 205.888 425.803 205.6C425.311 205.312 424.585 205.168 423.625 205.168H418.891L419.107 204.07H423.355C424.075 204.07 424.711 203.968 425.263 203.764C425.827 203.56 426.265 203.254 426.577 202.846C426.889 202.426 427.045 201.916 427.045 201.316C427.045 200.692 426.805 200.236 426.325 199.948C425.845 199.648 425.167 199.498 424.291 199.498H420.241L418.171 209.902ZM429.942 211L431.814 201.55H433.038L432.498 204.34L432.354 203.854C432.774 203.026 433.326 202.42 434.01 202.036C434.706 201.652 435.57 201.46 436.602 201.46L436.368 202.702C436.308 202.702 436.248 202.702 436.188 202.702C436.14 202.69 436.08 202.684 436.008 202.684C435 202.684 434.166 202.978 433.506 203.566C432.858 204.142 432.414 205.018 432.174 206.194L431.22 211H429.942ZM440.97 211.09C440.166 211.09 439.452 210.928 438.828 210.604C438.204 210.28 437.718 209.818 437.37 209.218C437.022 208.618 436.848 207.904 436.848 207.076C436.848 206.272 436.98 205.528 437.244 204.844C437.508 204.16 437.88 203.566 438.36 203.062C438.84 202.546 439.404 202.15 440.052 201.874C440.712 201.598 441.426 201.46 442.194 201.46C443.022 201.46 443.724 201.61 444.3 201.91C444.876 202.198 445.32 202.624 445.632 203.188C445.944 203.74 446.1 204.412 446.1 205.204C446.1 206.344 445.89 207.358 445.47 208.246C445.05 209.134 444.456 209.83 443.688 210.334C442.92 210.838 442.014 211.09 440.97 211.09ZM441.24 209.956C442.032 209.956 442.734 209.77 443.346 209.398C443.97 209.014 444.456 208.486 444.804 207.814C445.164 207.142 445.344 206.38 445.344 205.528C445.344 204.592 445.068 203.866 444.516 203.35C443.976 202.834 443.214 202.576 442.23 202.576C441.45 202.576 440.748 202.768 440.124 203.152C439.5 203.536 439.008 204.064 438.648 204.736C438.3 205.396 438.126 206.158 438.126 207.022C438.126 207.946 438.396 208.666 438.936 209.182C439.488 209.698 440.256 209.956 441.24 209.956ZM444.354 211L444.894 208.282L445.434 206.374L445.614 204.394L446.19 201.55H447.468L445.578 211H444.354ZM451.891 211.09C451.123 211.09 450.397 210.982 449.713 210.766C449.029 210.55 448.501 210.274 448.129 209.938L448.741 208.93C449.101 209.254 449.575 209.512 450.163 209.704C450.751 209.884 451.369 209.974 452.017 209.974C452.917 209.974 453.607 209.824 454.087 209.524C454.579 209.224 454.825 208.81 454.825 208.282C454.825 207.922 454.693 207.652 454.429 207.472C454.177 207.28 453.847 207.136 453.439 207.04C453.031 206.932 452.599 206.83 452.143 206.734C451.687 206.638 451.255 206.518 450.847 206.374C450.439 206.218 450.103 205.984 449.839 205.672C449.587 205.36 449.461 204.94 449.461 204.412C449.461 203.812 449.629 203.29 449.965 202.846C450.313 202.402 450.793 202.06 451.405 201.82C452.017 201.58 452.737 201.46 453.565 201.46C454.165 201.46 454.759 201.538 455.347 201.694C455.935 201.85 456.409 202.066 456.769 202.342L456.229 203.368C455.857 203.08 455.425 202.876 454.933 202.756C454.441 202.624 453.949 202.558 453.457 202.558C452.581 202.558 451.903 202.72 451.423 203.044C450.955 203.356 450.721 203.77 450.721 204.286C450.721 204.646 450.847 204.922 451.099 205.114C451.363 205.306 451.699 205.456 452.107 205.564C452.515 205.672 452.947 205.774 453.403 205.87C453.871 205.954 454.303 206.074 454.699 206.23C455.107 206.386 455.437 206.614 455.689 206.914C455.953 207.202 456.085 207.61 456.085 208.138C456.085 208.762 455.911 209.296 455.563 209.74C455.215 210.172 454.723 210.508 454.087 210.748C453.463 210.976 452.731 211.09 451.891 211.09ZM457.926 211L459.798 201.55H461.076L459.204 211H457.926ZM460.986 199.462C460.734 199.462 460.524 199.378 460.356 199.21C460.2 199.042 460.122 198.844 460.122 198.616C460.122 198.352 460.212 198.124 460.392 197.932C460.584 197.74 460.824 197.644 461.112 197.644C461.364 197.644 461.574 197.722 461.742 197.878C461.91 198.034 461.994 198.232 461.994 198.472C461.994 198.76 461.898 199 461.706 199.192C461.514 199.372 461.274 199.462 460.986 199.462ZM462.76 211L465.424 197.644H466.702L464.038 211H462.76Z" fill="white"/>
<defs>
<filter id="filter0_d_304_2830" x="0" y="0" width="506" height="250" filterUnits="userSpaceOnUse" color-interpolation-filters="sRGB">
<feFlood flood-opacity="0" result="BackgroundImageFix"/>
<feColorMatrix in="SourceAlpha" type="matrix" values="0 0 0 0 0 0 0 0 0 0 0 0 0 0 0 0 0 0 127 0" result="hardAlpha"/>
<feOffset dx="4" dy="4"/>
<feGaussianBlur stdDeviation="5"/>
<feComposite in2="hardAlpha" operator="out"/>
<feColorMatrix type="matrix" values="0 0 0 0 0.235294 0 0 0 0 0.0196078 0 0 0 0 0.780392 0 0 0 0.4 0"/>
<feBlend mode="normal" in2="BackgroundImageFix" result="effect1_dropShadow_304_2830"/>
<feBlend mode="normal" in="SourceGraphic" in2="effect1_dropShadow_304_2830" result="shape"/>
</filter>
<linearGradient id="paint0_linear_304_2830" x1="484" y1="224.5" x2="17" y2="14.5" gradientUnits="userSpaceOnUse">
<stop offset="0.428237" stop-color="#3C05C7"/>
<stop offset="0.567397" stop-color="#5C20D2"/>
<stop offset="0.73163" stop-color="#7C3ADC"/>
<stop offset="0.917408" stop-color="#9C55E7"/>
</linearGradient>
</defs>
</svg>
